<?xml version="1.0" encoding="UTF-8" standalone="no"?>
<!-- Created with Inkscape (http://www.inkscape.org/) -->

<svg
   xmlns:dc="http://purl.org/dc/elements/1.1/"
   xmlns:cc="http://creativecommons.org/ns#"
   xmlns:rdf="http://www.w3.org/1999/02/22-rdf-syntax-ns#"
   xmlns:svg="http://www.w3.org/2000/svg"
   xmlns="http://www.w3.org/2000/svg"
   xmlns:xlink="http://www.w3.org/1999/xlink"
   xmlns:sodipodi="http://sodipodi.sourceforge.net/DTD/sodipodi-0.dtd"
   xmlns:inkscape="http://www.inkscape.org/namespaces/inkscape"
   width="2979.9211"
   height="4212.9922"
   id="svg2"
   version="1.1"
   inkscape:version="0.48.0 r9654"
   sodipodi:docname="forkshoplogo.svg">
  <defs
     id="defs4">
    <radialGradient
       r="28.25"
       fy="371.36218"
       fx="216.75"
       cy="371.36218"
       cx="216.75"
       gradientTransform="matrix(3.65487,2.25292e-8,0,0.123894,-575.443,322.353)"
       gradientUnits="userSpaceOnUse"
       id="radialGradient14296"
       xlink:href="#linearGradient4618"
       inkscape:collect="always" />
    <radialGradient
       r="28.25"
       fy="371.36218"
       fx="216.75"
       cy="371.36218"
       cx="216.75"
       gradientTransform="matrix(3.65487,2.25292e-8,0,0.123894,-575.443,322.353)"
       gradientUnits="userSpaceOnUse"
       id="radialGradient14271"
       xlink:href="#linearGradient4618"
       inkscape:collect="always" />
    <linearGradient
       y2="390.36218"
       x2="710"
       y1="390.36218"
       x1="672"
       gradientTransform="translate(-87,2)"
       gradientUnits="userSpaceOnUse"
       id="linearGradient14269"
       xlink:href="#linearGradient14210"
       inkscape:collect="always" />
    <linearGradient
       y2="439.86218"
       x2="216"
       y1="435.98718"
       x1="216"
       gradientTransform="matrix(1.85634,0,0,1.85634,166.013,-197.508)"
       gradientUnits="userSpaceOnUse"
       id="linearGradient14267"
       xlink:href="#linearGradient4570"
       inkscape:collect="always" />
    <linearGradient
       y2="439.86218"
       x2="216"
       y1="435.98718"
       x1="216"
       gradientTransform="matrix(1.85634,0,0,1.85634,166.013,-207.718)"
       gradientUnits="userSpaceOnUse"
       id="linearGradient14265"
       xlink:href="#linearGradient4570"
       inkscape:collect="always" />
    <linearGradient
       y2="551.35938"
       x2="223.59375"
       y1="551.35938"
       x1="219.34375"
       gradientTransform="matrix(1.85634,0,0,1.85634,166.013,-207.718)"
       gradientUnits="userSpaceOnUse"
       id="linearGradient14263"
       xlink:href="#linearGradient4598"
       inkscape:collect="always" />
    <linearGradient
       y2="551.35938"
       x2="216.09375"
       y1="551.35938"
       x1="211.84375"
       gradientTransform="matrix(1.85634,0,0,1.85634,166.013,-207.718)"
       gradientUnits="userSpaceOnUse"
       id="linearGradient14261"
       xlink:href="#linearGradient4590"
       inkscape:collect="always" />
    <linearGradient
       y2="551.03125"
       x2="208.59375"
       y1="551.03125"
       x1="204.34375"
       gradientTransform="matrix(1.85634,0,0,1.85634,166.013,-207.718)"
       gradientUnits="userSpaceOnUse"
       id="linearGradient14259"
       xlink:href="#linearGradient4582"
       inkscape:collect="always" />
    <linearGradient
       y2="550.9375"
       x2="231.09375"
       y1="550.9375"
       x1="226.875"
       gradientTransform="matrix(1.85634,0,0,1.85634,166.013,-207.718)"
       gradientUnits="userSpaceOnUse"
       id="linearGradient14257"
       xlink:href="#linearGradient4606"
       inkscape:collect="always" />
    <radialGradient
       r="28.25"
       fy="371.36218"
       fx="216.75"
       cy="371.36218"
       cx="216.75"
       gradientTransform="matrix(3.65487,2.25292e-8,0,0.123894,-575.443,322.353)"
       gradientUnits="userSpaceOnUse"
       id="radialGradient14220"
       xlink:href="#linearGradient4618"
       inkscape:collect="always" />
    <linearGradient
       gradientTransform="translate(-87,2)"
       gradientUnits="userSpaceOnUse"
       y2="390.36218"
       x2="710"
       y1="390.36218"
       x1="672"
       id="linearGradient14216"
       xlink:href="#linearGradient14210"
       inkscape:collect="always" />
    <radialGradient
       r="28.25"
       fy="371.36218"
       fx="216.75"
       cy="371.36218"
       cx="216.75"
       gradientTransform="matrix(3.65487,2.25292e-8,0,0.123894,-575.443,322.353)"
       gradientUnits="userSpaceOnUse"
       id="radialGradient13696"
       xlink:href="#linearGradient4618"
       inkscape:collect="always" />
    <linearGradient
       y2="439.86218"
       x2="216"
       y1="435.98718"
       x1="216"
       gradientTransform="matrix(1.85634,0,0,1.85634,166.013,-197.508)"
       gradientUnits="userSpaceOnUse"
       id="linearGradient13642"
       xlink:href="#linearGradient4570"
       inkscape:collect="always" />
    <linearGradient
       y2="439.86218"
       x2="216"
       y1="435.98718"
       x1="216"
       gradientTransform="matrix(1.85634,0,0,1.85634,166.013,-207.718)"
       gradientUnits="userSpaceOnUse"
       id="linearGradient13640"
       xlink:href="#linearGradient4570"
       inkscape:collect="always" />
    <linearGradient
       y2="551.35938"
       x2="223.59375"
       y1="551.35938"
       x1="219.34375"
       gradientTransform="matrix(1.85634,0,0,1.85634,166.013,-207.718)"
       gradientUnits="userSpaceOnUse"
       id="linearGradient13636"
       xlink:href="#linearGradient4598"
       inkscape:collect="always" />
    <linearGradient
       y2="551.35938"
       x2="216.09375"
       y1="551.35938"
       x1="211.84375"
       gradientTransform="matrix(1.85634,0,0,1.85634,166.013,-207.718)"
       gradientUnits="userSpaceOnUse"
       id="linearGradient13634"
       xlink:href="#linearGradient4590"
       inkscape:collect="always" />
    <linearGradient
       y2="551.03125"
       x2="208.59375"
       y1="551.03125"
       x1="204.34375"
       gradientTransform="matrix(1.85634,0,0,1.85634,166.013,-207.718)"
       gradientUnits="userSpaceOnUse"
       id="linearGradient13632"
       xlink:href="#linearGradient4582"
       inkscape:collect="always" />
    <linearGradient
       y2="550.9375"
       x2="231.09375"
       y1="550.9375"
       x1="226.875"
       gradientTransform="matrix(1.85634,0,0,1.85634,166.013,-207.718)"
       gradientUnits="userSpaceOnUse"
       id="linearGradient13630"
       xlink:href="#linearGradient4606"
       inkscape:collect="always" />
    <radialGradient
       r="28.25"
       fy="371.36218"
       fx="216.75"
       cy="371.36218"
       cx="216.75"
       gradientTransform="matrix(3.65487,2.25292e-8,0,0.123894,-575.443,322.353)"
       gradientUnits="userSpaceOnUse"
       id="radialGradient4702"
       xlink:href="#linearGradient4618"
       inkscape:collect="always" />
    <inkscape:perspective
       sodipodi:type="inkscape:persp3d"
       inkscape:vp_x="0 : 62.007874 : 1"
       inkscape:vp_y="0 : 1000 : 0"
       inkscape:vp_z="318.89764 : 62.007874 : 1"
       inkscape:persp3d-origin="159.44882 : 41.338582 : 1"
       id="perspective3881" />
    <inkscape:perspective
       id="perspective3373"
       inkscape:persp3d-origin="372.04724 : 350.78739 : 1"
       inkscape:vp_z="744.09448 : 526.18109 : 1"
       inkscape:vp_y="0 : 1000 : 0"
       inkscape:vp_x="0 : 526.18109 : 1"
       sodipodi:type="inkscape:persp3d" />
    <linearGradient
       id="linearGradient4558"
       inkscape:collect="always">
      <stop
         id="stop4560"
         offset="0"
         style="stop-color:#2e3436;stop-opacity:1;" />
      <stop
         id="stop4562"
         offset="1"
         style="stop-color:#2e3436;stop-opacity:0" />
    </linearGradient>
    <linearGradient
       id="linearGradient4570"
       inkscape:collect="always">
      <stop
         id="stop4572"
         offset="0"
         style="stop-color:#2e3436;stop-opacity:1;" />
      <stop
         id="stop4574"
         offset="1"
         style="stop-color:#2e3436;stop-opacity:0;" />
    </linearGradient>
    <linearGradient
       id="linearGradient4582"
       inkscape:collect="always">
      <stop
         id="stop4584"
         offset="0"
         style="stop-color:#acb0ab;stop-opacity:1;" />
      <stop
         id="stop4586"
         offset="1"
         style="stop-color:#acb0ab;stop-opacity:0;" />
    </linearGradient>
    <linearGradient
       id="linearGradient4590"
       inkscape:collect="always">
      <stop
         id="stop4592"
         offset="0"
         style="stop-color:#9ea39e;stop-opacity:1;" />
      <stop
         id="stop4594"
         offset="1"
         style="stop-color:#9ea39e;stop-opacity:0;" />
    </linearGradient>
    <linearGradient
       id="linearGradient4598"
       inkscape:collect="always">
      <stop
         id="stop4600"
         offset="0"
         style="stop-color:#9ea39e;stop-opacity:1;" />
      <stop
         id="stop4602"
         offset="1"
         style="stop-color:#9ea39e;stop-opacity:0;" />
    </linearGradient>
    <linearGradient
       id="linearGradient4606"
       inkscape:collect="always">
      <stop
         id="stop4608"
         offset="0"
         style="stop-color:#9ea39e;stop-opacity:1;" />
      <stop
         id="stop4610"
         offset="1"
         style="stop-color:#9ea39e;stop-opacity:0;" />
    </linearGradient>
    <linearGradient
       id="linearGradient4618"
       inkscape:collect="always">
      <stop
         id="stop4620"
         offset="0"
         style="stop-color:#ffffff;stop-opacity:1;" />
      <stop
         id="stop4622"
         offset="1"
         style="stop-color:#ffffff;stop-opacity:0;" />
    </linearGradient>
    <linearGradient
       id="linearGradient14210"
       inkscape:collect="always">
      <stop
         id="stop14212"
         offset="0"
         style="stop-color:#eeeeec;stop-opacity:1;" />
      <stop
         id="stop14214"
         offset="1"
         style="stop-color:#eeeeec;stop-opacity:0;" />
    </linearGradient>
    <linearGradient
       inkscape:collect="always"
       xlink:href="#linearGradient4606"
       id="linearGradient3571"
       gradientUnits="userSpaceOnUse"
       gradientTransform="matrix(1.85634,0,0,1.85634,-243.987,-215.718)"
       x1="226.875"
       y1="550.9375"
       x2="231.09375"
       y2="550.9375" />
    <linearGradient
       inkscape:collect="always"
       xlink:href="#linearGradient4582"
       id="linearGradient3573"
       gradientUnits="userSpaceOnUse"
       gradientTransform="matrix(1.85634,0,0,1.85634,-243.987,-215.718)"
       x1="204.34375"
       y1="551.03125"
       x2="208.59375"
       y2="551.03125" />
    <linearGradient
       inkscape:collect="always"
       xlink:href="#linearGradient4590"
       id="linearGradient3575"
       gradientUnits="userSpaceOnUse"
       gradientTransform="matrix(1.85634,0,0,1.85634,-243.987,-215.718)"
       x1="211.84375"
       y1="551.35938"
       x2="216.09375"
       y2="551.35938" />
    <linearGradient
       inkscape:collect="always"
       xlink:href="#linearGradient4598"
       id="linearGradient3577"
       gradientUnits="userSpaceOnUse"
       gradientTransform="matrix(1.85634,0,0,1.85634,-243.987,-215.718)"
       x1="219.34375"
       y1="551.35938"
       x2="223.59375"
       y2="551.35938" />
    <radialGradient
       inkscape:collect="always"
       xlink:href="#linearGradient4558"
       id="radialGradient3579"
       gradientUnits="userSpaceOnUse"
       gradientTransform="matrix(3.92472,0.198883,-0.107204,2.11554,-651.579,-357.445)"
       cx="217.49129"
       cy="394.22855"
       fx="217.49129"
       fy="394.22855"
       r="33.00016" />
    <linearGradient
       inkscape:collect="always"
       xlink:href="#linearGradient4570"
       id="linearGradient3581"
       gradientUnits="userSpaceOnUse"
       gradientTransform="matrix(1.85634,0,0,1.85634,-243.987,-215.718)"
       x1="216"
       y1="435.98718"
       x2="216"
       y2="439.86218" />
    <linearGradient
       inkscape:collect="always"
       xlink:href="#linearGradient4570"
       id="linearGradient3583"
       gradientUnits="userSpaceOnUse"
       gradientTransform="matrix(1.85634,0,0,1.85634,-243.987,-205.508)"
       x1="216"
       y1="435.98718"
       x2="216"
       y2="439.86218" />
    <radialGradient
       inkscape:collect="always"
       xlink:href="#linearGradient4618"
       id="radialGradient3585"
       gradientUnits="userSpaceOnUse"
       gradientTransform="matrix(3.65487,2.25292e-8,0,0.123894,-575.443,322.353)"
       cx="216.75"
       cy="371.36218"
       fx="216.75"
       fy="371.36218"
       r="28.25" />
    <linearGradient
       inkscape:collect="always"
       xlink:href="#path3732_1_"
       id="linearGradient3606"
       gradientUnits="userSpaceOnUse"
       gradientTransform="matrix(0.9999,-0.0107,-0.0107,-0.9999,305.4731,336.6704)"
       x1="-265.81699"
       y1="330.34729"
       x2="-268.38571"
       y2="327.57309" />
    <linearGradient
       id="path3933_1_"
       gradientUnits="userSpaceOnUse"
       x1="648.33459"
       y1="375.09091"
       x2="653.11389"
       y2="375.09091"
       gradientTransform="matrix(0.7071,-0.7071,-0.7071,-0.7071,-26.2582,770.649)">
      <stop
         offset="0"
         style="stop-color:#C27E13"
         id="stop3095" />
      <stop
         offset="0.2688"
         style="stop-color:#C27E13;stop-opacity:0.498"
         id="stop3097" />
      <stop
         offset="1"
         style="stop-color:#C27E13;stop-opacity:0.9741"
         id="stop3099" />
    </linearGradient>
    <linearGradient
       id="path3732_1_"
       gradientUnits="userSpaceOnUse"
       x1="-265.81699"
       y1="330.34729"
       x2="-268.38571"
       y2="327.57309"
       gradientTransform="matrix(0.9999,-0.0107,-0.0107,-0.9999,305.4731,336.6704)">
      <stop
         offset="0"
         style="stop-color:#666864"
         id="stop3104" />
      <stop
         offset="0.5"
         style="stop-color:#494A47;stop-opacity:0.498"
         id="stop3106" />
      <stop
         offset="1"
         style="stop-color:#666864"
         id="stop3108" />
    </linearGradient>
    <linearGradient
       inkscape:collect="always"
       xlink:href="#path3732_1_"
       id="linearGradient4408"
       gradientUnits="userSpaceOnUse"
       gradientTransform="matrix(14.055347,-4.2516159e-4,-4.2516159e-4,-14.055347,4286.336,4882.431)"
       x1="-265.81699"
       y1="330.34729"
       x2="-268.38571"
       y2="327.57309" />
    <linearGradient
       inkscape:collect="always"
       xlink:href="#linearGradient4570"
       id="linearGradient4412"
       gradientUnits="userSpaceOnUse"
       gradientTransform="matrix(0.40166656,0,0,0.40166656,40.949358,638.70019)"
       x1="216"
       y1="435.98718"
       x2="216"
       y2="439.86218" />
    <linearGradient
       inkscape:collect="always"
       xlink:href="#linearGradient4570"
       id="linearGradient4415"
       gradientUnits="userSpaceOnUse"
       gradientTransform="matrix(0.40166656,0,0,0.40166656,40.949358,636.49099)"
       x1="216"
       y1="435.98718"
       x2="216"
       y2="439.86218" />
    <radialGradient
       inkscape:collect="always"
       xlink:href="#linearGradient4558"
       id="radialGradient4418"
       gradientUnits="userSpaceOnUse"
       gradientTransform="matrix(2.9158276,-2.6345646,1.420108,1.5717174,-885.58552,321.23626)"
       cx="217.49129"
       cy="394.22855"
       fx="217.49129"
       fy="394.22855"
       r="33.00016" />
    <linearGradient
       inkscape:collect="always"
       xlink:href="#linearGradient4598"
       id="linearGradient4421"
       gradientUnits="userSpaceOnUse"
       gradientTransform="matrix(0.28402115,-0.28402115,0.28402115,0.28402115,479.02266,421.11153)"
       x1="219.34375"
       y1="551.35938"
       x2="223.59375"
       y2="551.35938" />
    <linearGradient
       inkscape:collect="always"
       xlink:href="#linearGradient4590"
       id="linearGradient4424"
       gradientUnits="userSpaceOnUse"
       gradientTransform="matrix(0.28402115,-0.28402115,0.28402115,0.28402115,479.02266,421.11153)"
       x1="211.84375"
       y1="551.35938"
       x2="216.09375"
       y2="551.35938" />
    <linearGradient
       inkscape:collect="always"
       xlink:href="#linearGradient4582"
       id="linearGradient4427"
       gradientUnits="userSpaceOnUse"
       gradientTransform="matrix(0.28402115,-0.28402115,0.28402115,0.28402115,479.02266,421.11153)"
       x1="204.34375"
       y1="551.03125"
       x2="208.59375"
       y2="551.03125" />
    <linearGradient
       inkscape:collect="always"
       xlink:href="#linearGradient4606"
       id="linearGradient4430"
       gradientUnits="userSpaceOnUse"
       gradientTransform="matrix(0.28402115,-0.28402115,0.28402115,0.28402115,479.02266,421.11153)"
       x1="226.875"
       y1="550.9375"
       x2="231.09375"
       y2="550.9375" />
    <filter
       id="filter5287"
       inkscape:label="Darken edges"
       inkscape:menu="Shadows and Glows"
       inkscape:menu-tooltip="Darken the edges with an inner blur"
       color-interpolation-filters="sRGB">
      <feGaussianBlur
         id="feGaussianBlur5289"
         result="result6"
         stdDeviation="1.5" />
      <feComposite
         id="feComposite5291"
         in2="result6"
         operator="atop"
         in="SourceGraphic"
         result="result8" />
      <feComposite
         id="feComposite5293"
         in2="SourceAlpha"
         in="result8"
         operator="atop"
         result="result9" />
    </filter>
    <filter
       id="filter5295"
       inkscape:label="Darken edges"
       inkscape:menu="Shadows and Glows"
       inkscape:menu-tooltip="Darken the edges with an inner blur"
       color-interpolation-filters="sRGB">
      <feGaussianBlur
         id="feGaussianBlur5297"
         result="result6"
         stdDeviation="1.5" />
      <feComposite
         id="feComposite5299"
         in2="result6"
         operator="atop"
         in="SourceGraphic"
         result="result8" />
      <feComposite
         id="feComposite5301"
         in2="SourceAlpha"
         in="result8"
         operator="atop"
         result="result9" />
    </filter>
    <filter
       id="filter5303"
       inkscape:label="Darken edges"
       inkscape:menu="Shadows and Glows"
       inkscape:menu-tooltip="Darken the edges with an inner blur"
       color-interpolation-filters="sRGB">
      <feGaussianBlur
         id="feGaussianBlur5305"
         result="result6"
         stdDeviation="1.5" />
      <feComposite
         id="feComposite5307"
         in2="result6"
         operator="atop"
         in="SourceGraphic"
         result="result8" />
      <feComposite
         id="feComposite5309"
         in2="SourceAlpha"
         in="result8"
         operator="atop"
         result="result9" />
    </filter>
  </defs>
  <sodipodi:namedview
     id="base"
     pagecolor="#ffffff"
     bordercolor="#666666"
     borderopacity="1.0"
     inkscape:pageopacity="0.0"
     inkscape:pageshadow="2"
     inkscape:zoom="0.87885424"
     inkscape:cx="964.37089"
     inkscape:cy="631.92641"
     inkscape:document-units="px"
     inkscape:current-layer="layer1"
     showgrid="false"
     inkscape:window-width="1101"
     inkscape:window-height="756"
     inkscape:window-x="0"
     inkscape:window-y="0"
     inkscape:window-maximized="0" />
  <metadata
     id="metadata7">
    <rdf:RDF>
      <cc:Work
         rdf:about="">
        <dc:format>image/svg+xml</dc:format>
        <dc:type
           rdf:resource="http://purl.org/dc/dcmitype/StillImage" />
        <dc:title></dc:title>
      </cc:Work>
    </rdf:RDF>
  </metadata>
  <g
     inkscape:label="Layer 1"
     inkscape:groupmode="layer"
     id="layer1"
     transform="translate(0,3160.6299)">
    <path
       style="fill:#cccccc;fill-opacity:1;stroke:none"
       d="m 604.94174,438.28605 c -0.77884,0.77883 -0.20192,1.46671 0.57692,2.24554 l 26.57375,28.84592 c 0.065,0.065 0.14189,0.12334 0.21301,0.17751 0.0676,0.0852 0.13417,0.16968 0.21302,0.24852 l 6.91414,6.91415 c 4.66831,0.79896 11.39877,1.18422 14.67148,4.92599 l 61.49951,61.49951 c 1.66893,1.66893 4.35767,1.67782 6.02658,0.009 l 2.98222,-2.98223 c 1.66894,-1.66892 1.66006,-4.35765 -0.009,-6.02658 l -61.49951,-61.49951 c -4.51315,-3.31957 -3.61135,-9.72476 -4.92599,-14.67148 l -6.91415,-6.91414 c -0.0789,-0.0788 -0.16333,-0.14534 -0.24852,-0.21302 -0.0541,-0.0711 -0.11246,-0.14797 -0.17751,-0.21301 l -28.84592,-26.57375 c -0.77883,-0.77884 -1.46672,-1.35575 -2.24555,-0.57692 -0.77883,0.77883 -0.21079,1.47559 0.56805,2.25442 l 24.87849,24.8785 c 0.13319,0.0749 0.25918,0.15267 0.37278,0.26627 l 0.80769,0.80768 c 0.66757,0.66757 0.66757,1.74662 0,2.41419 l -0.20414,0.20414 c -0.66757,0.66756 -1.74661,0.66757 -2.41418,0 l -0.80769,-0.80768 c -0.13674,-0.13675 -0.22993,-0.28875 -0.31065,-0.45267 l -25.3844,-24.24833 c -0.77884,-0.77883 -1.4756,-1.34687 -2.25443,-0.56804 -0.77883,0.77883 -0.20191,1.46672 0.57692,2.24555 l 24.36371,25.4998 c 0.10724,0.0673 0.20827,0.13726 0.30177,0.23076 l 0.80769,0.80769 c 0.66757,0.66757 0.66757,1.74661 0,2.41418 l -0.19526,0.19527 c -0.66758,0.66756 -1.74662,0.66756 -2.41419,0 l -0.80768,-0.80769 c -0.1435,-0.1435 -0.2466,-0.29737 -0.3284,-0.47042 l -25.36653,-24.23069 c -0.77883,-0.77883 -1.46672,-1.35574 -2.24555,-0.57692 -0.77883,0.77883 -0.21079,1.47559 0.56804,2.25443 l 24.46135,25.59742 c 0.10724,0.0673 0.20827,0.15502 0.30177,0.24852 l 0.79881,0.79881 c 0.66757,0.66757 0.67644,1.73774 0.009,2.40531 l -0.20414,0.20414 c -0.66758,0.66757 -1.74662,0.66757 -2.41418,0 l -0.79881,-0.79882 c -0.15685,-0.15683 -0.27189,-0.34129 -0.35503,-0.53254 l -24.86074,-24.86074 c -0.77884,-0.77884 -1.47559,-1.34688 -2.25442,-0.56804 z"
       id="rect3890"
       sodipodi:nodetypes="cccccccccccccccccsccccccccccsccccccccccsccccccccccc"
       inkscape:connector-curvature="0"
       inkscape:export-filename="/Users/elliott/git/forkshop/images/forkshophoriz1024px.png"
       inkscape:export-xdpi="121.96"
       inkscape:export-ydpi="121.96" />
    <path
       style="fill:url(#linearGradient4430);fill-opacity:1;stroke:none"
       d="m 674.92638,486.95133 c -0.33115,0.33117 -0.33115,0.85819 0,1.18935 l 50.61795,50.61794 c 0.2736,-0.6753 0.36359,-1.40824 0.27514,-2.12129 L 676.1246,486.94246 c -0.33116,-0.33115 -0.85818,-0.33115 -1.18934,0 l -0.009,0.009 z"
       id="rect4510"
       sodipodi:nodetypes="ccccccc"
       inkscape:connector-curvature="0"
       inkscape:export-filename="/Users/elliott/git/forkshop/images/forkshophoriz1024px.png"
       inkscape:export-xdpi="121.96"
       inkscape:export-ydpi="121.96" />
    <path
       style="fill:url(#linearGradient4427);fill-opacity:1;stroke:none"
       d="m 668.5359,493.34182 c -0.33115,0.33116 -0.34003,0.86705 -0.009,1.19822 l 49.84576,49.84575 c 0.69115,0.0409 1.3914,-0.0854 2.03253,-0.38165 l -50.6712,-50.6712 c -0.33116,-0.33115 -0.85818,-0.33115 -1.18934,0 l -0.009,0.009 z"
       id="rect4512"
       sodipodi:nodetypes="ccccccc"
       inkscape:connector-curvature="0"
       inkscape:export-filename="/Users/elliott/git/forkshop/images/forkshophoriz1024px.png"
       inkscape:export-xdpi="121.96"
       inkscape:export-ydpi="121.96" />
    <path
       style="fill:url(#linearGradient4424);fill-opacity:1;stroke:none"
       d="m 670.66606,491.21166 c -0.33115,0.33116 -0.34003,0.86706 -0.009,1.19821 l 50.84871,50.84871 c 0.0398,-0.037 0.0855,-0.0677 0.12425,-0.10651 l 1.09171,-1.09171 -50.85758,-50.85757 c -0.33115,-0.33117 -0.85819,-0.33117 -1.18934,0 l -0.009,0.009 z"
       id="rect4514"
       sodipodi:nodetypes="cccccccc"
       inkscape:connector-curvature="0"
       inkscape:export-filename="/Users/elliott/git/forkshop/images/forkshophoriz1024px.png"
       inkscape:export-xdpi="121.96"
       inkscape:export-ydpi="121.96" />
    <path
       style="fill:url(#linearGradient4421);fill-opacity:1;stroke:none"
       d="m 672.79623,489.0815 c -0.33116,0.33115 -0.34004,0.86706 -0.009,1.19821 l 50.85759,50.85759 0.96744,-0.96746 c 0.0806,-0.0805 0.14916,-0.17232 0.22189,-0.25739 l -50.83983,-50.83982 c -0.33115,-0.33117 -0.85819,-0.33117 -1.18934,-1e-5 l -0.009,0.009 z"
       id="rect4516"
       sodipodi:nodetypes="cccccccc"
       inkscape:connector-curvature="0"
       inkscape:export-filename="/Users/elliott/git/forkshop/images/forkshophoriz1024px.png"
       inkscape:export-xdpi="121.96"
       inkscape:export-ydpi="121.96" />
    <rect
       style="opacity:0.32042254;fill:url(#linearGradient4415);fill-opacity:1;stroke:none"
       id="rect4568"
       width="11.849173"
       height="2.0083344"
       x="122.38723"
       y="811.61261"
       ry="0.84535402"
       transform="matrix(0.70710678,-0.70710678,0.70710678,0.70710678,0,0)"
       inkscape:export-filename="/Users/elliott/git/forkshop/images/forkshophoriz1024px.png"
       inkscape:export-xdpi="121.96"
       inkscape:export-ydpi="121.96" />
    <rect
       ry="0.84535402"
       y="813.82178"
       x="122.38723"
       height="2.0083344"
       width="11.849173"
       id="rect4578"
       style="opacity:0.32042254;fill:url(#linearGradient4412);fill-opacity:1;stroke:none"
       transform="matrix(0.70710678,-0.70710678,0.70710678,0.70710678,0,0)"
       inkscape:export-filename="/Users/elliott/git/forkshop/images/forkshophoriz1024px.png"
       inkscape:export-xdpi="121.96"
       inkscape:export-ydpi="121.96" />
    <path
       style="opacity:0.3125;fill:url(#path3039_1_)"
       id="path3039"
       sodipodi:rx="17.6875"
       sodipodi:cy="39.125"
       sodipodi:cx="24.8125"
       sodipodi:type="arc"
       sodipodi:ry="6.625"
       enable-background="new    "
       d="m 42.5,39.125 c 0,3.658886 -7.918963,6.625 -17.6875,6.625 -9.768537,0 -17.6875,-2.966114 -17.6875,-6.625 0,-3.658886 7.918963,-6.625 17.6875,-6.625 9.768537,0 17.6875,2.966114 17.6875,6.625 z"
       transform="matrix(14.055948,0,0,14.055948,53.895477,105.14385)"
       inkscape:export-filename="/Users/elliott/git/forkshop/images/forkshopfavicon.png"
       inkscape:export-xdpi="2.3499999"
       inkscape:export-ydpi="2.3499999" />
    <path
       style="fill:#8f5902;stroke:#8f5902;stroke-width:3.04136324"
       id="path3930"
       sodipodi:nodetypes="ccscccscccc"
       inkscape:connector-curvature="0"
       d="m 622.52843,542.44942 c 5.01942,4.80007 10.45177,-0.77851 16.18303,-6.80225 10.02595,-10.54208 7.29258,-10.85822 19.82394,-24.03476 12.53137,-13.17653 38.71453,-37.01988 38.71453,-37.01988 3.99146,-4.19791 10.15284,-8.93562 1.97207,-16.10561 -7.16999,-8.17647 -11.90554,-2.02154 -16.1056,1.97207 0,0 -23.84551,26.18533 -37.01989,38.71454 -13.17438,12.53351 -13.49267,9.79799 -24.0326,19.82179 -6.02375,5.73126 -11.60232,11.1636 -6.80225,16.18303 0,0 -0.39786,-0.31614 3.5936,3.67531 3.99145,3.99147 3.67317,3.59576 3.67317,3.59576 z"
       inkscape:export-filename="/Users/elliott/git/forkshop/images/forkshophoriz1024px.png"
       inkscape:export-xdpi="121.96"
       inkscape:export-ydpi="121.96" />
    <path
       style="fill:#babdb6"
       id="path3723"
       inkscape:connector-curvature="0"
       d="m 679.75924,425.24173 c -5.87578,-0.0444 -11.891,1.29351 -17.81124,3.42025 l 0.85256,0.19767 c 9.55907,-3.66038 31.88983,8.0445 27.54499,19.58943 -1.14798,1.83397 -0.78867,4.93104 0.7846,6.85183 l 10.16362,9.23306 c 3.00604,2.4714 5.79047,2.62277 8.34504,1.7984 4.93208,-1.5898 7.90181,3.1441 11.04963,6.58117 l -1.24691,1.41318 c -1.90825,2.10871 -1.56701,5.47325 0.77345,7.61209 2.34044,2.13884 5.69798,2.16859 7.60297,0.0811 l 8.561,-9.31916 c 1.90825,-2.10872 1.57322,-5.48536 -0.77648,-7.61213 -2.11143,-1.9387 -5.051,-2.08868 -7.02617,-0.54945 -6.42936,-6.59879 -3.22908,-7.79342 -11.70547,-16.37888 l -15.90741,-14.80562 c -6.39897,-5.74074 -13.65261,-8.05976 -21.20418,-8.11297 z m 6.97041,5.77422 c 3.90354,1.02407 7.68526,2.63082 11.15607,5.72764 0.0241,0.0215 0.0732,-0.0174 0.0943,7.7e-4 l 15.71582,14.80357 c 3.74884,3.83281 4.63986,5.55774 5.6221,7.56955 1.00304,2.05766 2.41688,4.95308 5.99413,8.61981 l 2.81919,2.88 3.25713,-2.5323 c 0.14417,-0.11405 0.50488,-0.28356 1.1374,0.29804 l -7.7e-4,0.0943 c 0.72297,0.65557 0.55459,1.04309 0.45922,1.14548 l -8.55797,9.31919 c -0.0585,0.0633 -0.41345,0.26629 -1.13638,-0.39231 -0.68076,-0.62165 -0.64927,-1.0076 -0.55958,-1.14655 0.006,-0.009 -0.002,-0.0882 0.004,-0.0942 l 1.2489,-1.31582 2.88309,-3.1081 -2.81715,-3.0716 c -1.35292,-1.47741 -2.9411,-3.71164 -5.35652,-5.66575 -2.41542,-1.9541 -6.53857,-3.48846 -10.52451,-2.20488 -1.48024,0.47693 -1.99893,0.62956 -3.79643,-0.8009 l -0.1875,-0.0993 -9.50775,-8.55996 c -0.012,-0.0154 0.0129,-0.0698 7.7e-4,-0.0943 -0.1634,-0.36368 -0.16201,-1.63504 -0.36291,-1.61893 l 0.0943,-0.2849 0.19666,-0.47238 c 1.63391,-4.33196 0.66637,-8.86201 -1.48303,-12.37358 -1.59938,-2.60846 -3.91259,-4.73485 -6.39259,-6.62273 z"
       inkscape:export-filename="/Users/elliott/git/forkshop/images/forkshophoriz1024px.png"
       inkscape:export-xdpi="121.96"
       inkscape:export-ydpi="121.96" />
    <path
       style="fill:#999999;stroke:#999999;stroke-width:3.04136324"
       id="use3311"
       sodipodi:nodetypes="cccccsccsccccccc"
       inkscape:connector-curvature="0"
       d="m 662.83439,427.40007 0.83768,0.1671 c 9.67724,-3.33367 31.60719,9.16381 26.87165,20.5525 -1.21446,1.79371 -0.97444,4.95339 0.53134,6.92821 l 9.88666,9.53426 c 2.91675,2.57385 5.649,2.77029 8.22996,2.03745 4.98808,-1.42192 7.8226,3.44132 10.85368,6.98664 l -1.34044,1.34222 c -1.97751,2.04411 -1.75529,5.44692 0.51132,7.66405 2.26355,2.22015 5.68065,2.36915 7.66399,0.34944 l 8.8468,-9.02413 c 1.98052,-2.04103 1.7553,-5.44691 -0.52057,-7.65198 -2.04375,-2.01097 -4.97937,-2.24608 -7.00553,-0.7743 -6.20196,-6.81536 -2.99392,-7.88216 -11.16923,-16.75031 L 701.71686,433.43574 C 690.6978,422.84919 676.52558,423.0082 662.83439,427.40007 z"
       inkscape:export-filename="/Users/elliott/git/forkshop/images/forkshophoriz1024px.png"
       inkscape:export-xdpi="121.96"
       inkscape:export-ydpi="121.96" />
    <path
       style="fill:#784421;stroke:#784421;stroke-width:6;stroke-linecap:butt;stroke-linejoin:miter;stroke-miterlimit:4;stroke-opacity:1;stroke-dasharray:none;filter:url(#filter5303)"
       d="M 171.72593,624.0575 C 472.75139,323.03205 474.7717,321.01174 474.7717,321.01174"
       id="path4435"
       inkscape:connector-curvature="0"
       inkscape:export-filename="/Users/elliott/git/forkshop/images/forkshophoriz1024px.png"
       inkscape:export-xdpi="121.96"
       inkscape:export-ydpi="121.96"
       transform="matrix(0.21637554,0,0,0.21637554,586.59556,392.28137)" />
    <path
       inkscape:connector-curvature="0"
       id="path4481"
       d="M 187.72593,640.0575 C 488.75139,339.03205 490.7717,337.01174 490.7717,337.01174"
       style="fill:#784421;stroke:#784421;stroke-width:6;stroke-linecap:butt;stroke-linejoin:miter;stroke-miterlimit:4;stroke-opacity:1;stroke-dasharray:none;filter:url(#filter5295)"
       inkscape:export-filename="/Users/elliott/git/forkshop/images/forkshophoriz1024px.png"
       inkscape:export-xdpi="121.96"
       inkscape:export-ydpi="121.96"
       transform="matrix(0.21637554,0,0,0.21637554,586.59556,392.28137)" />
    <path
       style="fill:#784421;stroke:#784421;stroke-width:6;stroke-linecap:butt;stroke-linejoin:miter;stroke-miterlimit:4;stroke-opacity:1;stroke-dasharray:none;filter:url(#filter5287)"
       d="M 205.72593,656.0575 C 506.75139,355.03205 508.7717,353.01174 508.7717,353.01174"
       id="path4483"
       inkscape:connector-curvature="0"
       inkscape:export-filename="/Users/elliott/git/forkshop/images/forkshophoriz1024px.png"
       inkscape:export-xdpi="121.96"
       inkscape:export-ydpi="121.96"
       transform="matrix(0.21637554,0,0,0.21637554,586.59556,392.28137)" />
    <text
       xml:space="preserve"
       style="font-size:11.84271717px;font-style:normal;font-variant:normal;font-weight:normal;font-stretch:normal;line-height:125%;letter-spacing:0px;word-spacing:0px;fill:#4d4d4d;fill-opacity:1;stroke:none;font-family:Onyx;-inkscape-font-specification:Onyx"
       x="580.79755"
       y="585.98218"
       id="text5311"
       sodipodi:linespacing="125%"
       inkscape:export-filename="/Users/elliott/git/forkshop/images/forkshoptag130px.png"
       inkscape:export-xdpi="18.860001"
       inkscape:export-ydpi="18.860001"><tspan
         sodipodi:role="line"
         id="tspan5313"
         x="580.79755"
         y="585.98218"
         style="font-size:42.63377762px;fill:#4d4d4d;font-family:gulim;-inkscape-font-specification:gulim">forkshop</tspan></text>
    <text
       inkscape:export-ydpi="121.96"
       inkscape:export-xdpi="121.96"
       inkscape:export-filename="/Users/elliott/git/forkshop/images/forkshophoriz1024px.png"
       sodipodi:linespacing="125%"
       id="text3233"
       y="542.92694"
       x="755.23206"
       style="font-size:41.69309616px;font-style:normal;font-variant:normal;font-weight:normal;font-stretch:normal;line-height:125%;letter-spacing:0px;word-spacing:0px;fill:#4d4d4d;fill-opacity:1;stroke:none;font-family:Onyx;-inkscape-font-specification:Onyx"
       xml:space="preserve"><tspan
         style="font-size:150.09513855px;fill:#4d4d4d;font-family:gulim;-inkscape-font-specification:gulim"
         y="542.92694"
         x="755.23206"
         id="tspan3235"
         sodipodi:role="line">forkshop</tspan></text>
  </g>
</svg>
