<?xml version="1.0" encoding="UTF-8" standalone="no"?>
<svg
   xmlns:dc="http://purl.org/dc/elements/1.1/"
   xmlns:cc="http://creativecommons.org/ns#"
   xmlns:rdf="http://www.w3.org/1999/02/22-rdf-syntax-ns#"
   xmlns:svg="http://www.w3.org/2000/svg"
   xmlns="http://www.w3.org/2000/svg"
   xmlns:sodipodi="http://sodipodi.sourceforge.net/DTD/sodipodi-0.dtd"
   xmlns:inkscape="http://www.inkscape.org/namespaces/inkscape"
   version="1.0"
   width="375"
   height="305"
   id="svg2"
   inkscape:version="0.48.0 r9654"
   sodipodi:docname="Laurel_wreath.svg">
  <metadata
     id="metadata42">
    <rdf:RDF>
      <cc:Work
         rdf:about="">
        <dc:format>image/svg+xml</dc:format>
        <dc:type
           rdf:resource="http://purl.org/dc/dcmitype/StillImage" />
        <dc:title></dc:title>
      </cc:Work>
    </rdf:RDF>
  </metadata>
  <defs
     id="defs40" />
  <sodipodi:namedview
     pagecolor="#ffffff"
     bordercolor="#666666"
     borderopacity="1"
     objecttolerance="10"
     gridtolerance="10"
     guidetolerance="10"
     inkscape:pageopacity="0"
     inkscape:pageshadow="2"
     inkscape:window-width="664"
     inkscape:window-height="500"
     id="namedview38"
     showgrid="false"
     inkscape:zoom="0.85901639"
     inkscape:cx="187.5"
     inkscape:cy="152.5"
     inkscape:window-x="0"
     inkscape:window-y="0"
     inkscape:window-maximized="0"
     inkscape:current-layer="svg2" />
  <path
     style="fill:#373e48"
     d="m 309.38574,244.10938 c -10.77441,2.88525 -22.27148,3.81298 -32.73535,7.38134 17.72266,-15.1958 16.71094,-38.70849 28.53516,-56.60595 3.7666,-5.06739 6.87988,-10.37891 11.2705,-15.1875 -7.19238,14.42773 -4.07324,33.14648 -12.33593,47.14746 -3.18067,5.56152 -7.72949,10.95703 -12.75977,15.32519 1.64356,-0.0615 3.08203,-1.48437 4.52735,-2.43457 13.42089,-13.39258 30.9541,-17.13769 45.47168,-28.01855 5.81542,-4.63379 11.1416,-10.70606 13.69824,-17.27344 -2.74707,22.21973 -24.85254,43.0459 -45.67188,49.66602 l 0,0 z"
     id="path8"
     inkscape:connector-curvature="0"
     inkscape:export-filename="/Users/elliott/git/forkshop/images/wreath200px.png"
     inkscape:export-xdpi="62.18"
     inkscape:export-ydpi="62.18" />
  <path
     style="fill:#373e48"
     d="m 357.73535,154.14551 c -6.5664,9.34375 -14.50976,18.04199 -20.57617,27.53808 0.67676,-7.51855 1.56738,-16.76367 -1.36133,-23.88574 -5.07519,-15.33691 -9.53418,-30.90918 -10.97265,-47.74121 l 0.19824,-6.43652 c 3.81933,17.18945 20.70508,29.00586 19.63965,48.28711 0.38671,4.67285 -1.0586,8.6455 -1.9336,12.75488 l 0.29004,0.30371 0.76074,-0.85254 c 2.50391,-9.45801 3.76758,-19.40332 7.66114,-28.22754 5.5332,-12.69824 12.44238,-25.51367 9.62695,-40.8457 8.41602,18.07617 5.86621,42.22754 -3.33301,59.10547 l 0,0 z"
     id="path10"
     inkscape:connector-curvature="0"
     inkscape:export-filename="/Users/elliott/git/forkshop/images/wreath200px.png"
     inkscape:export-xdpi="62.18"
     inkscape:export-ydpi="62.18" />
  <path
     style="fill:#373e48"
     d="m 347.37109,56.75781 c 11.07227,15.00537 13.49903,38.91797 5.43457,56.12989 -3.00586,7.29394 -5.1289,15.0664 -6.30957,23.13964 -0.56347,-1.39257 -0.69238,-3.26464 -1.19531,-4.8164 -4.4043,-16.84766 -20.33789,-28.85449 -26.89062,-44.73877 -2.07813,-5.19434 -3.84961,-10.56153 -4.83203,-16.2002 7.00195,12.9502 24.25781,19.63916 28.96093,33.91065 1.92676,3.60937 1.81836,8.11914 3.01367,12 0.25098,0 0.50196,-0.18653 0.50196,-0.44141 -2.07031,-14.70117 -1.43848,-30.0874 0.55664,-44.60596 -0.11524,-7.86425 -0.88281,-15.49267 -5.25195,-21.58007 2.80175,1.63232 4.06347,4.76757 6.01171,7.20263 l 0,0 z"
     id="path12"
     inkscape:connector-curvature="0"
     inkscape:export-filename="/Users/elliott/git/forkshop/images/wreath200px.png"
     inkscape:export-xdpi="62.18"
     inkscape:export-ydpi="62.18" />
  <path
     style="fill:#373e48"
     d="m 339.56445,53.87744 c 2.90821,13.14893 -1.33984,25.95459 1.33203,39.22998 l -0.0996,0.11426 C 333.64355,79.15527 318.45703,72.5166 308.00781,61.2583 c -6.05566,-6.68066 -8.68847,-14.82275 -10.20312,-23.44385 5.9873,14.43457 22.14355,17.61524 31.41894,29.77881 3.10352,2.8042 4.11621,6.68897 6.11719,9.86914 l 0.32715,-0.31592 c -5.33399,-11.38671 -7.1211,-24.20117 -10.84277,-36.34521 -1.86329,-5.26221 -5.56153,-10.43262 -10.52344,-13.75049 12.17578,2.48828 22.72851,15.19971 25.26269,26.82666 l 0,0 z"
     id="path14"
     inkscape:connector-curvature="0"
     inkscape:export-filename="/Users/elliott/git/forkshop/images/wreath200px.png"
     inkscape:export-xdpi="62.18"
     inkscape:export-ydpi="62.18" />
  <path
     style="fill:#373e48"
     d="m 307.01172,23.72168 c 9.16992,8.20703 13.31738,18.8335 15.99512,29.84375 l 1.51464,3.49658 C 311.21191,47.48975 299.12109,34.62207 290.62207,21.03223 L 280.24219,10.53125 c 9.125,3.86914 18.96289,6.17871 26.76953,13.19043 l 0,0 z"
     id="path16"
     inkscape:connector-curvature="0"
     inkscape:export-filename="/Users/elliott/git/forkshop/images/wreath200px.png"
     inkscape:export-xdpi="62.18"
     inkscape:export-ydpi="62.18" />
  <path
     style="fill:#373e48"
     d="M 96.80566,12.27393 C 87.60547,20.33936 81.22461,30.53955 74.39941,40.05127 68.28125,47.62646 60.45508,52.62158 53.51953,59.13574 57.26367,51.37402 57.40039,42.10254 62.71094,34.97266 70.26758,21.78906 84.28027,17.15088 96.80566,12.27393 l 0,0 z"
     id="path18"
     inkscape:connector-curvature="0"
     inkscape:export-filename="/Users/elliott/git/forkshop/images/wreath200px.png"
     inkscape:export-xdpi="62.18"
     inkscape:export-ydpi="62.18" />
  <path
     style="fill:#373e48"
     d="m 46.49219,40.35986 c 4.47461,-5.5625 10.14746,-9.42822 16.53125,-11.06054 -12.39551,8.51513 -11.58887,23.7749 -15.51856,36.46045 -1.25293,4.69091 -3.42871,9.01269 -4.51269,13.82128 l 0.31543,0.25098 C 45.37012,74.396 48.99512,69.25977 53.51953,64.82422 62.32324,56.69727 75.34668,51.63232 79.66113,39.61035 79.46387,56.31641 65.52734,69.4502 52.19238,78.83936 46.69336,83.66357 41.39063,89.16162 38.3623,95.36328 38.06543,91.14844 38.98535,86.9165 38.68555,82.40137 37.23535,67.81787 36.18164,51.17236 46.49219,40.35986 l 0,0 z"
     id="path20"
     inkscape:connector-curvature="0"
     inkscape:export-filename="/Users/elliott/git/forkshop/images/wreath200px.png"
     inkscape:export-xdpi="62.18"
     inkscape:export-ydpi="62.18" />
  <path
     style="fill:#373e48"
     d="m 21.41211,90.22754 c -0.37305,-14.77832 5.76074,-26.8418 14.4043,-37.85303 0.25097,-0.12549 0.42968,-0.37646 0.75293,-0.31592 -9.51465,14.4585 -1.64356,32.67041 -2.07715,49.11036 l -1.25489,16.83203 c 0.18653,0.12207 0.18653,0.62793 0.62793,0.43359 0.5625,-1.87598 0.68457,-3.88086 1.06055,-5.81055 2.24121,-13.57714 14.03223,-23.21093 24.33106,-32.59375 2.19921,-2.4541 4.14355,-4.9458 5.27343,-7.82568 C 63.68945,78.96484 61.57031,85.7832 58.76563,92.03516 50.75,107.66699 35.94238,120.49316 33.2373,138.38965 31.9248,121.23926 20.24805,108.41699 21.41211,90.22754 l 0,0 z"
     id="path22"
     inkscape:connector-curvature="0"
     inkscape:export-filename="/Users/elliott/git/forkshop/images/wreath200px.png"
     inkscape:export-xdpi="62.18"
     inkscape:export-ydpi="62.18" />
  <path
     style="fill:#373e48"
     d="m 14.21387,111.24316 c 1.06543,-4.62207 1.87988,-9.40527 3.8916,-13.64648 -3.81152,19.53711 9.3291,33.61426 13.63965,50.54883 1.80371,6.33398 2.24511,13.13672 4.82422,19.08008 0.24023,0.12988 0.44921,-0.1211 0.59765,-0.31153 -6.41797,-17.98926 2.84668,-34.70605 12.15625,-48.79101 2.26367,-3.81641 3.56836,-8.06641 4.69434,-12.45313 0.98926,8.1416 -1.06934,17.51758 -2.25195,25.97071 -2.26368,10.75585 -5.64258,20.95605 -8.58399,31.39257 -1.93555,6.52149 -1.42676,13.87891 -0.43262,20.71192 L 41.81641,183 C 34.99121,170.41406 21.47656,160.59766 17.46289,146.84766 14.16016,135.88574 11.96484,123.1875 14.21387,111.24316 l 0,0 z"
     id="path24"
     inkscape:connector-curvature="0"
     inkscape:export-filename="/Users/elliott/git/forkshop/images/wreath200px.png"
     inkscape:export-xdpi="62.18"
     inkscape:export-ydpi="62.18" />
  <path
     style="fill:#373e48"
     d="m 13.59766,149.40137 c 1.50293,20.70801 23.77148,31.65039 34.09375,48.79394 2.44238,3.50782 4.56152,7.38867 7.82519,10.3252 -0.50976,-2.20606 -2.56836,-4.0625 -3.32422,-6.32227 -3.61133,-7.19043 -4.92773,-15.75879 -4.05957,-24.44922 1,-10.57714 5.43653,-20.39257 3.74317,-31.51757 9.07031,19.55664 6.31543,43.96679 11.38672,65.1582 1.32812,4.63476 4.01074,8.77344 5.76855,13.20312 C 50.39551,211.90039 24.98438,199.82422 16.7168,176.5625 13.23242,168.54199 12.84375,158.6123 13.59766,149.40137 l 0,0 z"
     id="path26"
     inkscape:connector-curvature="0"
     inkscape:export-filename="/Users/elliott/git/forkshop/images/wreath200px.png"
     inkscape:export-xdpi="62.18"
     inkscape:export-ydpi="62.18" />
  <path
     style="fill:#373e48"
     d="m 24.72949,196.95508 c 10.39063,23.50586 36.41406,25.45312 53.86231,39.7666 3.21093,2.8457 6.57519,5.26562 10.20019,6.9541 l 0.18653,-0.18945 C 84.97266,239.86426 80.33887,235.73926 77.53418,231.04492 67.32227,216.8457 70.91406,196.95508 63.2627,181.68359 70.21484,190 76.53711,198.64453 80.73438,208.0791 c 6.24316,15.40137 8.6289,32.79688 23.07519,44.43897 -15.63379,-5.15235 -33.94922,-3.71289 -47.74805,-13.33936 -15.0664,-9.25976 -28.51269,-24.96582 -31.33203,-42.22363 l 0,0 z"
     id="path28"
     inkscape:connector-curvature="0"
     inkscape:export-filename="/Users/elliott/git/forkshop/images/wreath200px.png"
     inkscape:export-xdpi="62.18"
     inkscape:export-ydpi="62.18" />
  <path
     style="fill:#373e48"
     d="m 51.43457,240.80664 c 16.66016,18.94775 43.88281,12.62549 66.0752,17.58447 3.13476,0.42774 6.0039,1.6836 9.32617,1.17383 -2.64551,-1.67383 -6.31641,-1.49219 -9.2041,-3.01367 -17.39551,-6.11133 -19.94727,-24.94385 -29.39063,-37.64307 12.06445,8.01172 22.20703,18.81739 33.33692,29.2876 8,7.00781 17.62988,10.24219 27.77636,12.30469 -2.43847,0.89062 -5.63476,0.64648 -8.25195,1.33203 -18.22852,4.48242 -38.48047,11.80859 -57.81152,5.25 -12.56739,-3.95703 -25.53321,-13.89453 -31.85645,-26.27588 l 0,0 z"
     id="path30"
     inkscape:connector-curvature="0"
     inkscape:export-filename="/Users/elliott/git/forkshop/images/wreath200px.png"
     inkscape:export-xdpi="62.18"
     inkscape:export-ydpi="62.18" />
  <path
     style="fill:#373e48"
     d="m 277.55664,284.97314 c -18.77344,7.00586 -38.36621,-0.32031 -53.0293,-11.43945 -5.93652,-3.77344 -11.16992,-9.20703 -18.84863,-8.72656 -2.78516,-0.0527 -5.4707,0.084 -7.83789,0.76758 14.24512,6.6289 27.47754,15.76758 39.57617,27.45508 -2.03906,2.32812 -4.67969,4.50585 -7.16699,6.51367 -11.65918,-12.5625 -24.57129,-24.6543 -39.02832,-31.7168 -2.83105,0.36719 -5.52441,2.07031 -8.07715,3.44141 -11.76953,7.4414 -23.40723,17.01367 -32.15723,28.73242 l -7.51855,-6.20899 c 12,-12.13867 25.27344,-21.58789 39.79395,-28.33789 -14.26856,-4.51953 -23.58204,7.4336 -34.41309,13.51368 -12.62109,8.8125 -30.77246,12.95117 -46.02539,6.87109 -8.20313,-3.11133 -16.15039,-7.69336 -22.08984,-15.14063 12.0039,8.26954 29.88183,9.13672 43.5332,3.76563 18.31836,-7.94531 37.35351,-18.01758 59.43652,-13.20117 3.44629,0.0605 6.79492,3.49218 10.05078,0.57031 16.41309,-4.26172 34.99512,-1.33203 49.12598,6.16992 l 14.56445,5.83789 c 13.53711,5.00586 31.03907,3.6211 42.64258,-4.62695 -5.96582,7.42578 -14.11523,12.74609 -22.53125,15.75976 l 0,0 z"
     id="path32"
     inkscape:connector-curvature="0"
     inkscape:export-filename="/Users/elliott/git/forkshop/images/wreath200px.png"
     inkscape:export-xdpi="62.18"
     inkscape:export-ydpi="62.18" />
  <path
     style="fill:#373e48"
     d="m 297.6748,265.57471 c -21.07812,7.95898 -42.2832,-1.81055 -62.47949,-5.07422 l -3.88867,-0.49414 0,-0.12305 c 9.65723,-2.19141 19.03125,-5.06641 26.71777,-12.00586 11.32129,-10.88232 21.39551,-22.08349 33.96778,-30.65869 -9.32324,11.9541 -10.31153,28.96924 -25.71289,36.65479 -3.81153,2.49414 -8.62207,2.93554 -12.55567,4.82421 5.60938,0.1211 10.74512,-1.88867 16.29981,-2.45117 20.65234,-3.24219 44.27832,0.084 58.7666,-17.50928 -5.37891,12.25928 -18.84961,22.52491 -31.11524,26.83741 l 0,0 z"
     id="path34"
     inkscape:connector-curvature="0"
     inkscape:export-filename="/Users/elliott/git/forkshop/images/wreath200px.png"
     inkscape:export-xdpi="62.18"
     inkscape:export-ydpi="62.18" />
  <path
     style="fill:#373e48"
     d="m 335.97266,206.26855 c -8.32422,5.44825 -16.76172,10.50098 -24.76075,16.69532 l 0,-0.76074 c 12.25196,-20.36231 6.2627,-48.33497 13.81153,-70.74415 l 2.81543,-7.50683 c -1.5752,13.95996 4.48828,25.78515 4.0625,39.79297 -0.42578,8.46191 -3.1875,15.96484 -7.63086,22.72168 l 0.75293,0 c 6.00293,-7.88379 10.69043,-16.26856 17.70605,-23.77832 10.88965,-10.50098 21.96094,-21.26856 23.39063,-35.84082 3.69824,24.32714 -9.95215,45.64843 -30.14746,59.42089 l 0,0 z"
     id="path36"
     inkscape:connector-curvature="0"
     inkscape:export-filename="/Users/elliott/git/forkshop/images/wreath200px.png"
     inkscape:export-xdpi="62.18"
     inkscape:export-ydpi="62.18" />
</svg>
